<?xml version="1.0" encoding="utf-8"?>
<!-- Generator: Adobe Illustrator 26.0.3, SVG Export Plug-In . SVG Version: 6.00 Build 0)  -->
<svg version="1.0" id="katman_1" xmlns="http://www.w3.org/2000/svg" xmlns:xlink="http://www.w3.org/1999/xlink" x="0px" y="0px"
	 viewBox="0 0 800 600" style="enable-background:new 0 0 800 600;" xml:space="preserve">
<style type="text/css">
	.st0{clip-path:url(#SVGID_00000047037800552049276960000011659467216537756050_);}
	.st1{fill-rule:evenodd;clip-rule:evenodd;fill:url(#SVGID_00000069391291331483261720000013015708223290131339_);}
	.st2{fill-rule:evenodd;clip-rule:evenodd;fill:url(#SVGID_00000127017631367124125600000004577642212512333500_);}
	.st3{fill:url(#SVGID_00000141429164965431222810000016328630503299043230_);}
	.st4{fill:#6D4AFF;}
	.st5{fill:#1B1340;}
</style>
<g>
	<defs>
		<rect id="SVGID_1_" x="56.1" y="228.5" width="693.2" height="135.6"/>
	</defs>
	<clipPath id="SVGID_00000100341906889217512950000001323839311951295138_">
		<use xlink:href="#SVGID_1_"  style="overflow:visible;"/>
	</clipPath>
	<g style="clip-path:url(#SVGID_00000100341906889217512950000001323839311951295138_);">
		
			<linearGradient id="SVGID_00000170274601395247888130000001894264076738910343_" gradientUnits="userSpaceOnUse" x1="146.7364" y1="452.6335" x2="151.6761" y2="284.6943" gradientTransform="matrix(1 0 0 -1 -20.9449 604.3622)">
			<stop  offset="0.9887" style="stop-color:#6D4AFF"/>
			<stop  offset="1" style="stop-color:#000000"/>
		</linearGradient>
		<path style="fill-rule:evenodd;clip-rule:evenodd;fill:url(#SVGID_00000170274601395247888130000001894264076738910343_);" d="
			M114.5,356.4c5.5,10,19.7,10.5,25.9,1l58.4-89c6.2-9.4,0.3-22.1-10.9-23.4L73.1,231.8c-12.2-1.4-21,11.6-15,22.4L114.5,356.4z"/>
		
			<linearGradient id="SVGID_00000111164369635068509860000001013873180400574393_" gradientUnits="userSpaceOnUse" x1="167.5198" y1="427.4431" x2="126.4724" y2="250.7141" gradientTransform="matrix(1 0 0 -1 -20.9449 604.3622)">
			<stop  offset="0.4799" style="stop-color:#24ECC6;stop-opacity:0"/>
			<stop  offset="0.9944" style="stop-color:#24ECC6"/>
		</linearGradient>
		<path style="fill-rule:evenodd;clip-rule:evenodd;fill:url(#SVGID_00000111164369635068509860000001013873180400574393_);" d="
			M114.5,356.4c5.5,10,19.7,10.5,25.9,1l58.4-89c6.2-9.4,0.3-22.1-10.9-23.4L73.1,231.8c-12.2-1.4-21,11.6-15,22.4L114.5,356.4z"/>
		
			<linearGradient id="SVGID_00000128472700925013171050000006297961043265827228_" gradientUnits="userSpaceOnUse" x1="205.1286" y1="253.2852" x2="114.1183" y2="408.9221" gradientTransform="matrix(1 0 0 -1 -20.9449 604.3622)">
			<stop  offset="6.601250e-02" style="stop-color:#ABFFEF"/>
			<stop  offset="0.4499" style="stop-color:#CAC9FF"/>
			<stop  offset="1" style="stop-color:#6D4AFF"/>
		</linearGradient>
		<path style="fill:url(#SVGID_00000128472700925013171050000006297961043265827228_);" d="M123,339.3l-5.2,7.8
			c-2.1,3.2-6.8,3-8.6-0.4l5.3,9.7c1,1.7,2.2,3.2,3.5,4.3l0,0c6.6,5.6,17.2,4.6,22.4-3.3l58.4-89c6.2-9.4,0.3-22.1-10.9-23.4
			L73.1,231.8c-12.2-1.4-21,11.6-15,22.4l0.5,0.8l97.7,11.3c6.2,0.7,9.5,7.8,6.1,13L123,339.3z"/>
		<path class="st4" d="M657.5,259.2h-33.7v73h13.3V314c0-1.8,0.7-3.5,1.9-4.7c1.3-1.2,2.9-2,4.7-2h13.7c6.4,0,12.5-2.5,17-7
			c4.5-4.5,7-10.6,7-17c0-3.2-0.6-6.3-1.8-9.2s-3-5.6-5.2-7.8s-4.9-4-7.8-5.2C663.8,259.9,660.7,259.2,657.5,259.2L657.5,259.2z
			 M668,283.2c0,1.5-0.3,3-0.9,4.4c-0.6,1.4-1.4,2.6-2.5,3.7c-1.1,1.1-2.3,1.9-3.7,2.5c-1.4,0.6-2.9,0.9-4.4,0.9h-19.5v-22.7h19.5
			c1.5,0,3,0.3,4.4,0.9c1.4,0.6,2.6,1.4,3.7,2.5c1.1,1.1,1.9,2.3,2.5,3.7C667.7,280.3,668,281.7,668,283.2L668,283.2z"/>
		<path class="st4" d="M577,331.9L550.1,259h15.2l17.7,52.2c0.7,1.9,1.2,3.8,1.5,5.8h0.1c0.2-2,0.7-3.9,1.5-5.8l17.7-52.2h15.3
			l-27,72.9H577z"/>
		<path class="st4" d="M686.5,331.9V259h11.7l34.4,45.2c1.2,1.6,2.3,3.2,3.2,5h0.2c-0.2-2.2-0.3-4.4-0.3-6.6V259h13.8v72.9h-11.7
			l-34.5-45.2c-1.2-1.6-2.3-3.2-3.2-5H700c0.2,2.2,0.3,4.4,0.2,6.6v43.6H686.5z"/>
		<path class="st5" d="M284.4,258.8h-33.7v73H264v-18.2c0-1.8,0.7-3.5,2-4.7c1.2-1.2,2.9-2,4.7-2h13.7c6.4,0,12.5-2.5,17-7
			c4.5-4.5,7-10.6,7-17c0-3.2-0.6-6.3-1.8-9.2c-1.2-2.9-3-5.6-5.2-7.8c-2.2-2.2-4.9-4-7.8-5.2C290.7,259.4,287.5,258.8,284.4,258.8
			L284.4,258.8z M294.9,282.8c0,1.5-0.3,3-0.9,4.4c-0.6,1.4-1.4,2.6-2.5,3.7c-1.1,1.1-2.3,1.9-3.7,2.5c-1.4,0.6-2.9,0.9-4.4,0.9H264
			v-22.7h19.5c1.5,0,3,0.3,4.4,0.9c1.4,0.6,2.6,1.4,3.7,2.5c1.1,1.1,1.9,2.3,2.5,3.7C294.6,279.8,294.9,281.3,294.9,282.8
			L294.9,282.8z"/>
		<path class="st5" d="M310.5,331.8v-28.9c0-11.8,6.9-21.2,20.7-21.2c2.2,0,4.4,0.2,6.6,0.7v11.9c-1.6-0.1-3-0.1-3.6-0.1
			c-7.3,0-10.5,3.3-10.5,10.1v27.5H310.5z"/>
		<path class="st5" d="M341.7,307.2c0-14.5,11-25.6,26.2-25.6c15.3,0,26.2,11.1,26.2,25.6c0,14.5-11,25.7-26.2,25.7
			C352.7,332.9,341.7,321.8,341.7,307.2z M381.1,307.2c0-8.3-5.5-14.1-13.2-14.1c-7.6,0-13.2,5.9-13.2,14.1
			c0,8.3,5.5,14.1,13.2,14.1C375.6,321.3,381.1,315.6,381.1,307.2L381.1,307.2z"/>
		<path class="st5" d="M432.6,293.2h-14.3v18.3c0,6.4,2.3,9.3,8.9,9.3c0.6,0,2.2,0,4.2-0.1v10.8c-2.5,0.7-5.1,1.1-7.7,1.1
			c-11.1,0-18.6-6.7-18.6-19.3v-20.1h-8.9v-10.5h2.2c1.8,0,3.5-0.7,4.7-2c1.2-1.2,2-2.9,2-4.7v-10h13.3v16.6h14.3V293.2z"/>
		<path class="st5" d="M436.6,307.2c0-14.5,11-25.6,26.2-25.6c15.2,0,26.2,11.1,26.2,25.6c0,14.5-11,25.7-26.2,25.7
			S436.6,321.8,436.6,307.2z M476,307.2c0-8.3-5.5-14.1-13.2-14.1s-13.2,5.9-13.2,14.1c0,8.3,5.5,14.1,13.2,14.1
			C470.4,321.3,476,315.6,476,307.2z"/>
		<path class="st5" d="M495.9,331.8v-28c0-13,8.3-22.3,23-22.3s22.9,9.3,22.9,22.3v27.9h-13.2v-26.8c0-7.2-3.2-11.7-9.7-11.7
			c-6.5,0-9.7,4.5-9.7,11.7v26.9H495.9z"/>
	</g>
</g>
</svg>
