<?xml version="1.0" encoding="utf-8"?>
<!-- Generator: Adobe Illustrator 26.0.3, SVG Export Plug-In . SVG Version: 6.00 Build 0)  -->
<svg version="1.1" id="Layer_1" xmlns="http://www.w3.org/2000/svg" xmlns:xlink="http://www.w3.org/1999/xlink" x="0px" y="0px"
	 viewBox="0 0 16 16" style="enable-background:new 0 0 16 16;" xml:space="preserve">
<style type="text/css">
	.st0{fill-rule:evenodd;clip-rule:evenodd;fill:#8A6EFF;}
</style>
<path class="st0" d="M2.6,2.2c-0.2,0.2-0.2,0.5,0,0.7l10.4,10.4c0.2,0.2,0.5,0.2,0.7,0c0.2-0.2,0.2-0.5,0-0.7l-1.3-1.3
	c0.9-0.7,1.7-1.7,2.3-2.9c0.1-0.3,0.1-0.6,0-0.9C12.5,3.3,8.3,2,4.9,3.8L3.4,2.2C3.2,2,2.8,2,2.6,2.2z M5.6,4.5l2.2,2.2
	C7.9,6.5,8,6.3,8,6c0-0.4-0.1-0.7-0.3-1C7.8,5,7.9,5,8,5c1.7,0,3,1.3,3,3c0,0.5-0.1,1.1-0.4,1.5l1.1,1.1c0.8-0.6,1.5-1.5,2.1-2.6
	C12.4,5.3,10.1,4,8,4C7.2,4,6.4,4.2,5.6,4.5z M6.3,8C6.2,8,6.1,8,6,8C5.6,8,5.3,7.9,5,7.7C5,7.8,5,7.9,5,8c0,1.7,1.3,3,3,3
	c0.4,0,0.8-0.1,1.1-0.2L6.3,8z M1.2,7.6c0.6-1.1,1.3-1.9,2-2.6l0.7,0.7C3.3,6.3,2.6,7,2.1,8c1.5,2.7,3.7,4,5.9,4
	c0.6,0,1.3-0.1,1.9-0.3l0.8,0.8c-3.3,1.5-7.3,0.1-9.5-4C1.1,8.2,1.1,7.8,1.2,7.6z"/>
</svg>
