<?xml version="1.0" encoding="utf-8"?>
<!-- Generator: Adobe Illustrator 26.0.3, SVG Export Plug-In . SVG Version: 6.00 Build 0)  -->
<svg version="1.1" id="Layer_1" xmlns="http://www.w3.org/2000/svg" xmlns:xlink="http://www.w3.org/1999/xlink" x="0px" y="0px"
	 viewBox="0 0 16 16" style="enable-background:new 0 0 16 16;" xml:space="preserve">
<style type="text/css">
	.st0{fill-rule:evenodd;clip-rule:evenodd;fill:#8A6EFF;}
</style>
<path class="st0" d="M8,12c-2.1,0-4.4-1.3-5.9-4C3.6,5.3,5.9,4,8,4c2.1,0,4.4,1.3,5.9,4C12.4,10.7,10.1,12,8,12z M14.8,7.6
	c-3.3-6.1-10.3-6.1-13.6,0c-0.1,0.3-0.1,0.6,0,0.9c3.3,6.1,10.3,6.1,13.6,0C14.9,8.2,14.9,7.8,14.8,7.6z M8,6c0,1.1-0.9,2-2,2
	C5.6,8,5.3,7.9,5,7.7C5,7.8,5,7.9,5,8c0,1.7,1.3,3,3,3c1.7,0,3-1.3,3-3S9.7,5,8,5C7.9,5,7.8,5,7.7,5C7.9,5.3,8,5.6,8,6z"/>
</svg>
