<?xml version="1.0" encoding="utf-8"?>
<!-- Generator: Adobe Illustrator 26.0.3, SVG Export Plug-In . SVG Version: 6.00 Build 0)  -->
<svg version="1.1" id="Layer_1" xmlns="http://www.w3.org/2000/svg" xmlns:xlink="http://www.w3.org/1999/xlink" x="0px" y="0px"
	 viewBox="0 0 16 16" style="enable-background:new 0 0 16 16;" xml:space="preserve">
<style type="text/css">
	.st0{fill-rule:evenodd;clip-rule:evenodd;fill:#A7A4B5;}
</style>
<path class="st0" d="M7.5,2.3c1.3-1.3,3.3-1.7,4.9-1c0.2,0.1,0.3,0.2,0.3,0.4c0,0.2,0,0.3-0.1,0.4l-2.1,2.1l0.2,1.2L12,5.7L14,3.6
	c0.1-0.1,0.3-0.2,0.4-0.1c0.2,0,0.3,0.1,0.4,0.3c0.7,1.6,0.4,3.6-1,4.9c-1.1,1.1-2.6,1.5-4.1,1.2L5.8,14c-1,1-2.6,1-3.5,0
	c-1-1-1-2.6,0-3.5l4.1-4.1C6,5,6.4,3.4,7.5,2.3z M11.3,2.1c-1.1-0.2-2.3,0.1-3.1,1C7.3,3.9,7,5.2,7.3,6.4c0,0.2,0,0.4-0.1,0.5
	l-4.3,4.3c-0.6,0.6-0.6,1.5,0,2.1c0.6,0.6,1.5,0.6,2.1,0L9.3,9c0.1-0.1,0.3-0.2,0.5-0.1c1.2,0.3,2.5,0,3.4-0.9c0.8-0.8,1.2-2,1-3.1
	l-1.7,1.7c-0.1,0.1-0.3,0.2-0.5,0.1l-1.8-0.4c-0.2,0-0.4-0.2-0.4-0.4L9.5,4.2c0-0.2,0-0.3,0.1-0.5L11.3,2.1z"/>
</svg>
