<?xml version="1.0" encoding="utf-8"?>
<svg version="1.1" id="Layer_1" xmlns="http://www.w3.org/2000/svg" xmlns:xlink="http://www.w3.org/1999/xlink" x="0px" y="0px"
	 viewBox="12 13 25 25" style="enable-background:new 0 0 50 50;" xml:space="preserve">
<style type="text/css">
	.st0{fill-rule:evenodd;clip-rule:evenodd;fill:url(#SVGID_1_);}
	.st1{fill-rule:evenodd;clip-rule:evenodd;fill:url(#SVGID_00000179623718493237744380000001822013374167103378_);}
	.st2{fill-rule:evenodd;clip-rule:evenodd;fill:url(#SVGID_00000166662081072146141900000011398005821491064979_);}
	.st3{fill-rule:evenodd;clip-rule:evenodd;fill:url(#SVGID_00000136392201933729594890000013522983325187500444_);}
</style>
<g>
	
		<linearGradient id="SVGID_1_" gradientUnits="userSpaceOnUse" x1="24.0729" y1="792.7283" x2="24.9134" y2="821.2634" gradientTransform="matrix(1 0 0 1 0 -792)">
		<stop  offset="0.9887" style="stop-color:#6D4AFF"/>
		<stop  offset="1" style="stop-color:#000000"/>
	</linearGradient>
	<path class="st0" d="M22.2,35.5c0.9,1.7,3.3,1.8,4.4,0.2l9.9-15.1c1.1-1.6,0-3.8-1.9-4l-19.5-2.2c-2.1-0.2-3.6,2-2.5,3.8L22.2,35.5
		z"/>
	
		<linearGradient id="SVGID_00000115482928009205252490000007092240464606197688_" gradientUnits="userSpaceOnUse" x1="24.5884" y1="810.0159" x2="22.6172" y2="828.2148" gradientTransform="matrix(1 0 0 1 0 -792)">
		<stop  offset="0" style="stop-color:#6D4AFF"/>
		<stop  offset="1" style="stop-color:#2AE0CA"/>
	</linearGradient>
	<path style="fill-rule:evenodd;clip-rule:evenodd;fill:url(#SVGID_00000115482928009205252490000007092240464606197688_);" d="
		M22.2,35.5c0.9,1.7,3.3,1.8,4.4,0.2l9.9-15.1c1.1-1.6,0-3.8-1.9-4l-19.5-2.2c-2.1-0.2-3.6,2-2.5,3.8L22.2,35.5z"/>
	
		<linearGradient id="SVGID_00000102508848256421527460000004188195535591011976_" gradientUnits="userSpaceOnUse" x1="24.5884" y1="810.0159" x2="22.6172" y2="828.2148" gradientTransform="matrix(1 0 0 1 0 -792)">
		<stop  offset="0" style="stop-color:#6D4AFF"/>
		<stop  offset="1" style="stop-color:#2AE0CA"/>
	</linearGradient>
	<path style="fill-rule:evenodd;clip-rule:evenodd;fill:url(#SVGID_00000102508848256421527460000004188195535591011976_);" d="
		M22.2,35.5c0.9,1.7,3.3,1.8,4.4,0.2l9.9-15.1c1.1-1.6,0-3.8-1.9-4l-19.5-2.2c-2.1-0.2-3.6,2-2.5,3.8L22.2,35.5z"/>
	
		<linearGradient id="SVGID_00000150082972474716683750000015468562722213777566_" gradientUnits="userSpaceOnUse" x1="34.1111" y1="826.7673" x2="18.6361" y2="800.3423" gradientTransform="matrix(1 0 0 1 0 -792)">
		<stop  offset="6.601250e-02" style="stop-color:#ABFFEF"/>
		<stop  offset="0.4499" style="stop-color:#CAC9FF"/>
		<stop  offset="1" style="stop-color:#6D4AFF"/>
	</linearGradient>
	<path style="fill-rule:evenodd;clip-rule:evenodd;fill:url(#SVGID_00000150082972474716683750000015468562722213777566_);" d="
		M23.7,32.8l-0.9,1.3c-0.4,0.5-1.2,0.5-1.5-0.1l0.9,1.6c0.2,0.3,0.4,0.5,0.6,0.7l0,0c1.1,0.9,2.9,0.8,3.8-0.6l9.9-15.1
		c1.1-1.6,0-3.8-1.9-4l-19.5-2.2c-2.1-0.2-3.6,2-2.5,3.8l0.1,0.1l16.6,1.9c1.1,0.1,1.6,1.3,1,2.2L23.7,32.8z"/>
</g>
</svg>
