<?xml version="1.0" encoding="utf-8"?>
<!-- Generator: Adobe Illustrator 26.0.3, SVG Export Plug-In . SVG Version: 6.00 Build 0)  -->
<svg version="1.1" id="Layer_1" xmlns="http://www.w3.org/2000/svg" xmlns:xlink="http://www.w3.org/1999/xlink" x="0px" y="0px"
	 viewBox="0 0 342 73" style="enable-background:new 0 0 342 73;" xml:space="preserve">
<style type="text/css">
	.st0{fill-rule:evenodd;clip-rule:evenodd;fill:url(#SVGID_1_);}
	.st1{fill-rule:evenodd;clip-rule:evenodd;fill:url(#SVGID_00000088816016770773133630000016287344486567758730_);}
	.st2{fill-rule:evenodd;clip-rule:evenodd;fill:url(#SVGID_00000025411768470150930370000004519174456653104314_);}
	.st3{fill:#8A6EFF;}
	.st4{fill:#FFFFFF;}
</style>
<linearGradient id="SVGID_1_" gradientUnits="userSpaceOnUse" x1="39.6875" y1="111.0973" x2="42.0817" y2="29.6967" gradientTransform="matrix(1 0 0 -1 0 73.8898)">
	<stop  offset="0.9887" style="stop-color:#6D4AFF"/>
	<stop  offset="1" style="stop-color:#000000"/>
</linearGradient>
<path class="st0" d="M34.2,62c2.7,4.8,9.5,5.1,12.6,0.5l28.3-43.1c3-4.6,0.1-10.7-5.3-11.3L14.2,1.6C8.2,0.9,4,7.2,6.9,12.5L34.2,62
	z"/>
<linearGradient id="SVGID_00000165942657295412907970000003123644199925160585_" gradientUnits="userSpaceOnUse" x1="41.2708" y1="66.0668" x2="39.7563" y2="16.8209" gradientTransform="matrix(1 0 0 -1 0 73.8898)">
	<stop  offset="0" style="stop-color:#6D4AFF"/>
	<stop  offset="1" style="stop-color:#2AE0CA"/>
</linearGradient>
<path style="fill-rule:evenodd;clip-rule:evenodd;fill:url(#SVGID_00000165942657295412907970000003123644199925160585_);" d="
	M34.2,62c2.7,4.8,9.5,5.1,12.6,0.5l28.3-43.1c3-4.6,0.1-10.7-5.3-11.3L14.2,1.6C8.2,0.9,4,7.2,6.9,12.5L34.2,62z"/>
<linearGradient id="SVGID_00000138575688821285677740000006003554852807669643_" gradientUnits="userSpaceOnUse" x1="67.9902" y1="14.4725" x2="23.8773" y2="89.9102" gradientTransform="matrix(1 0 0 -1 0 73.8898)">
	<stop  offset="6.601250e-02" style="stop-color:#ABFFEF"/>
	<stop  offset="0.4499" style="stop-color:#CAC9FF"/>
	<stop  offset="1" style="stop-color:#6D4AFF"/>
</linearGradient>
<path style="fill-rule:evenodd;clip-rule:evenodd;fill:url(#SVGID_00000138575688821285677740000006003554852807669643_);" d="
	M38.3,53.7l-2.5,3.8c-1,1.5-3.3,1.4-4.2-0.2l2.6,4.7c0.5,0.8,1,1.5,1.7,2.1l0,0c3.2,2.7,8.3,2.2,10.9-1.6l28.3-43.1
	c3-4.6,0.1-10.7-5.3-11.3L14.2,1.6C8.2,0.9,4,7.2,6.9,12.5l0.2,0.4l47.4,5.5c3,0.3,4.6,3.8,2.9,6.3L38.3,53.7z"/>
<path class="st3" d="M297.4,14.9h-16.3v35.4h6.5v-8.8c0-0.9,0.3-1.7,0.9-2.3c0.6-0.6,1.4-0.9,2.3-0.9h6.6c3.1,0,6-1.2,8.2-3.4
	c2.2-2.2,3.4-5.1,3.4-8.2c0-1.5-0.3-3.1-0.9-4.5s-1.4-2.7-2.5-3.8c-1.1-1.1-2.4-1.9-3.8-2.5C300.5,15.2,298.9,14.9,297.4,14.9
	L297.4,14.9z M302.5,26.5c0,0.7-0.1,1.4-0.4,2.1c-0.3,0.7-0.7,1.3-1.2,1.8s-1.1,0.9-1.8,1.2c-0.7,0.3-1.4,0.4-2.1,0.4h-9.5V21h9.5
	c0.7,0,1.4,0.1,2.1,0.4c0.7,0.3,1.3,0.7,1.8,1.2c0.5,0.5,0.9,1.1,1.2,1.8C302.4,25.1,302.5,25.8,302.5,26.5L302.5,26.5z"/>
<path class="st3" d="M258.4,50.1l-13-35.3h7.4l8.6,25.3c0.3,0.9,0.6,1.8,0.7,2.8h0.1c0.1-1,0.4-1.9,0.7-2.8l8.6-25.3h7.4l-13.1,35.3
	H258.4z"/>
<path class="st3" d="M311.5,50.1V14.8h5.7l16.7,21.9c0.6,0.8,1.1,1.6,1.6,2.4h0.1c-0.1-1.1-0.2-2.1-0.2-3.2V14.8h6.7v35.3h-5.7
	l-16.7-21.9c-0.6-0.8-1.1-1.6-1.5-2.4H318c0.1,1.1,0.1,2.1,0.1,3.2v21.1H311.5z"/>
<path class="st4" d="M116.6,14.7h-16.3v35.4h6.5v-8.8c0-0.9,0.3-1.7,0.9-2.3c0.6-0.6,1.4-0.9,2.3-0.9h6.6c3.1,0,6-1.2,8.2-3.4
	c2.2-2.2,3.4-5.1,3.4-8.2c0-1.5-0.3-3.1-0.9-4.5s-1.4-2.7-2.5-3.8c-1.1-1.1-2.4-1.9-3.8-2.5C119.6,15,118.1,14.7,116.6,14.7
	L116.6,14.7z M121.6,26.3c0,0.7-0.1,1.4-0.4,2.1c-0.3,0.7-0.7,1.3-1.2,1.8s-1.1,0.9-1.8,1.2c-0.7,0.3-1.4,0.4-2.1,0.4h-9.5v-11h9.5
	c0.7,0,1.4,0.1,2.1,0.4c0.7,0.3,1.3,0.7,1.8,1.2c0.5,0.5,0.9,1.1,1.2,1.8C121.5,24.9,121.6,25.6,121.6,26.3L121.6,26.3z"/>
<path class="st4" d="M129.2,50.1V36c0-5.7,3.3-10.3,10-10.3c1.1,0,2.1,0.1,3.2,0.3v5.8c-0.8-0.1-1.5-0.1-1.7-0.1
	c-3.5,0-5.1,1.6-5.1,4.9v13.3H129.2z"/>
<path class="st4" d="M144.4,38.2c0-7,5.3-12.4,12.7-12.4c7.4,0,12.7,5.4,12.7,12.4c0,7-5.3,12.5-12.7,12.5
	C149.7,50.6,144.4,45.2,144.4,38.2z M163.4,38.2c0-4-2.7-6.8-6.4-6.8c-3.7,0-6.4,2.8-6.4,6.8c0,4,2.7,6.8,6.4,6.8
	C160.8,45,163.4,42.2,163.4,38.2L163.4,38.2z"/>
<path class="st4" d="M188.4,31.4h-6.9v8.9c0,3.1,1.1,4.5,4.3,4.5c0.3,0,1.1,0,2-0.1v5.2c-1.2,0.4-2.5,0.5-3.7,0.6
	c-5.4,0-9-3.2-9-9.4v-9.7h-4.3v-5.1h1.1c0.9,0,1.7-0.3,2.3-0.9c0.6-0.6,0.9-1.4,0.9-2.3v-4.8h6.4v8.1h6.9V31.4z"/>
<path class="st4" d="M190.3,38.2c0-7,5.3-12.4,12.7-12.4c7.4,0,12.7,5.4,12.7,12.4c0,7-5.3,12.5-12.7,12.5
	C195.6,50.6,190.3,45.2,190.3,38.2z M209.4,38.2c0-4-2.7-6.8-6.4-6.8c-3.7,0-6.4,2.8-6.4,6.8c0,4,2.7,6.8,6.4,6.8
	C206.7,45,209.4,42.2,209.4,38.2z"/>
<path class="st4" d="M219.1,50.1V36.5c0-6.3,4-10.8,11.1-10.8c7.1,0,11.1,4.5,11.1,10.8V50H235v-13c0-3.5-1.6-5.7-4.7-5.7
	c-3.1,0-4.7,2.2-4.7,5.7v13H219.1z"/>
</svg>
