<svg width="32" height="32" viewBox="0 0 32 32" fill="none" xmlns="http://www.w3.org/2000/svg">
<path d="M12.6524 8.15833L4.90473 7.2699C2.80339 7.02894 1.30723 9.26197 2.32931 11.1137L12.0113 28.6553C12.9585 30.3714 15.391 30.4644 16.4664 28.8255L22.5928 19.4894C22.4375 19.4968 22.2813 19.5006 22.1241 19.5006C16.8086 19.5006 12.4996 15.1915 12.4996 9.87601C12.4996 9.28973 12.552 8.71569 12.6524 8.15833Z" fill="url(#paint0_linear_358_4651)"/>
<path d="M22.5922 19.4883C22.4371 19.4957 22.2811 19.4995 22.1241 19.4995C20.6954 19.4995 19.3394 19.1882 18.1202 18.6297L13.459 25.7256L12.576 27.053C12.2155 27.5948 11.4092 27.5617 11.0943 26.9924L12.0113 28.6537C12.1748 28.95 12.3827 29.198 12.6202 29.3969C13.7581 30.3502 15.5767 30.1794 16.4664 28.8235L22.5922 19.4883Z" fill="url(#paint1_linear_358_4651)"/>
<path d="M12.6525 8.1564L4.90474 7.26794C2.8034 7.02702 1.30723 9.26006 2.32931 11.1118L2.4071 11.2527L12.851 12.4612C12.622 11.6382 12.4996 10.7708 12.4996 9.87489C12.4996 9.28832 12.552 8.71402 12.6525 8.1564Z" fill="url(#paint2_linear_358_4651)"/>
<path fill-rule="evenodd" clip-rule="evenodd" d="M29.9988 9.87466C29.9988 14.2237 26.4732 17.7493 22.1242 17.7493C17.7751 17.7493 14.2495 14.2237 14.2495 9.87466C14.2495 5.52561 17.7751 2 22.1242 2C26.4732 2 29.9988 5.52561 29.9988 9.87466ZM23.98 6.78171C24.3217 6.44001 24.8757 6.44001 25.2174 6.78171C25.5591 7.1234 25.5591 7.6774 25.2174 8.01909L23.3617 9.87477L25.218 11.7311C25.5597 12.0728 25.5597 12.6268 25.218 12.9685C24.8763 13.3102 24.3223 13.3102 23.9806 12.9685L22.1243 11.1122L20.2678 12.9686C19.9261 13.3103 19.3721 13.3103 19.0305 12.9686C18.6888 12.6269 18.6888 12.0729 19.0305 11.7312L20.8869 9.87477L19.0311 8.01896C18.6894 7.67727 18.6894 7.12327 19.0311 6.78158C19.3728 6.43988 19.9268 6.43988 20.2685 6.78158L22.1243 8.63739L23.98 6.78171Z" fill="#DC3251"/>
<defs>
<linearGradient id="paint0_linear_358_4651" x1="1.37991" y1="-0.450363" x2="23.2576" y2="28.4641" gradientUnits="userSpaceOnUse">
<stop stop-color="#1C1B24"/>
<stop offset="0.988838" stop-color="#A7A4B5"/>
</linearGradient>
<linearGradient id="paint1_linear_358_4651" x1="16.9357" y1="34.2081" x2="-3.83766" y2="1.56199" gradientUnits="userSpaceOnUse">
<stop offset="0.0660125" stop-color="white"/>
<stop offset="0.44988" stop-color="#A7A4B5"/>
<stop offset="1" stop-color="#6D697D"/>
</linearGradient>
<linearGradient id="paint2_linear_358_4651" x1="16.9357" y1="34.2081" x2="-3.83766" y2="1.56199" gradientUnits="userSpaceOnUse">
<stop offset="0.0660125" stop-color="white"/>
<stop offset="0.44988" stop-color="#A7A4B5"/>
<stop offset="1" stop-color="#6D697D"/>
</linearGradient>
</defs>
</svg>
