<svg width="32" height="32" viewBox="0 0 32 32" fill="none" xmlns="http://www.w3.org/2000/svg">
<path d="M12.8626 7.72698L4.96218 6.82104C2.81928 6.57531 1.29353 8.85251 2.33582 10.7409L12.2093 28.6294C13.1752 30.3795 15.6558 30.4743 16.7525 28.803L23.0003 19.2819C22.8417 19.2895 22.6822 19.2933 22.5218 19.2933C17.1011 19.2933 12.7068 14.899 12.7068 9.47839C12.7068 8.8806 12.7603 8.29529 12.8626 7.72698Z" fill="url(#paint0_linear_710_10329)"/>
<path d="M22.9991 19.2817C22.8409 19.2893 22.6818 19.2931 22.5218 19.2931C21.0648 19.2931 19.682 18.9756 18.4387 18.4061L13.6857 25.6418L12.7851 26.9955C12.4176 27.548 11.5953 27.5142 11.2742 26.9336L12.2093 28.6278C12.3761 28.93 12.588 29.1828 12.8302 29.3858C13.9907 30.3579 15.8452 30.1837 16.7525 28.801L22.9991 19.2817Z" fill="url(#paint1_linear_710_10329)"/>
<path d="M12.8629 7.72508L4.96219 6.81908C2.81929 6.57339 1.29353 8.8506 2.33582 10.739L2.41515 10.8827L13.0651 12.1149C12.8316 11.2759 12.7068 10.3916 12.7068 9.47815C12.7068 8.87978 12.7604 8.29391 12.8629 7.72508Z" fill="url(#paint2_linear_710_10329)"/>
<path fill-rule="evenodd" clip-rule="evenodd" d="M21.875 17.75C26.2243 17.75 29.75 14.2243 29.75 9.87502C29.75 5.52577 26.2243 2 21.875 2C17.5258 2 14 5.52577 14 9.87502C14 14.2243 17.5258 17.75 21.875 17.75ZM26.8688 7.86874C27.2105 7.52703 27.2105 6.97301 26.8688 6.6313C26.527 6.28959 25.973 6.28959 25.6313 6.6313L21 11.2626L18.9937 9.2563C18.652 8.91459 18.098 8.91459 17.7563 9.2563C17.4146 9.59801 17.4146 10.152 17.7563 10.4937L20.3813 13.1188C20.723 13.4605 21.277 13.4605 21.6187 13.1188L26.8688 7.86874Z" fill="#1EA885"/>
<defs>
<linearGradient id="paint0_linear_710_10329" x1="10.4617" y1="11.7337" x2="11.4498" y2="27.5834" gradientUnits="userSpaceOnUse">
<stop stop-color="#6D4AFF"/>
<stop offset="0.988738" stop-color="#2AE0CA"/>
</linearGradient>
<linearGradient id="paint1_linear_710_10329" x1="18.5107" y1="31.1432" x2="2.57641" y2="3.89442" gradientUnits="userSpaceOnUse">
<stop offset="0.0660125" stop-color="#ABFFEF"/>
<stop offset="0.44988" stop-color="#CAC9FF"/>
<stop offset="1" stop-color="#6D4AFF"/>
</linearGradient>
<linearGradient id="paint2_linear_710_10329" x1="18.5107" y1="31.1432" x2="2.57641" y2="3.89442" gradientUnits="userSpaceOnUse">
<stop offset="0.0660125" stop-color="#ABFFEF"/>
<stop offset="0.44988" stop-color="#CAC9FF"/>
<stop offset="1" stop-color="#6D4AFF"/>
</linearGradient>
</defs>
</svg>
