<?xml version="1.0" encoding="utf-8"?>
<!-- Generator: Adobe Illustrator 26.0.3, SVG Export Plug-In . SVG Version: 6.00 Build 0)  -->
<svg version="1.1" id="Layer_1" xmlns="http://www.w3.org/2000/svg" xmlns:xlink="http://www.w3.org/1999/xlink" x="0px" y="0px"
	 viewBox="0 0 36 36" style="enable-background:new 0 0 36 36;" xml:space="preserve">
<style type="text/css">
	.st0{fill:url(#SVGID_1_);}
	.st1{fill:url(#SVGID_00000036968927719691725080000005070481933731955858_);}
	.st2{fill:url(#SVGID_00000036226769282654035560000011477429570455859371_);}
	.st3{fill-rule:evenodd;clip-rule:evenodd;fill:#1EA885;}
</style>
<linearGradient id="SVGID_1_" gradientUnits="userSpaceOnUse" x1="13.1847" y1="813.1979" x2="13.9368" y2="838.7667" gradientTransform="matrix(1 0 0 1 0 -806)">
	<stop  offset="0" style="stop-color:#6D4AFF"/>
	<stop  offset="1" style="stop-color:#2AE0CA"/>
</linearGradient>
<path class="st0" d="M14,7.4L3.8,6.2c-2.8-0.3-4.7,2.6-3.4,5l12.7,23c1.2,2.3,4.4,2.4,5.8,0.2l8-12.2c-0.2,0-0.4,0-0.6,0
	c-7,0-12.6-5.6-12.6-12.6C13.8,8.8,13.8,8.1,14,7.4z"/>
<linearGradient id="SVGID_00000060022237132918655760000017627337745130756770_" gradientUnits="userSpaceOnUse" x1="24.3876" y1="841.6224" x2="3.9007" y2="806.5884" gradientTransform="matrix(1 0 0 1 0 -806)">
	<stop  offset="6.601250e-02" style="stop-color:#ABFFEF"/>
	<stop  offset="0.4499" style="stop-color:#CAC9FF"/>
	<stop  offset="1" style="stop-color:#6D4AFF"/>
</linearGradient>
<path style="fill:url(#SVGID_00000060022237132918655760000017627337745130756770_);" d="M27,22.2c-0.2,0-0.4,0-0.6,0
	c-1.9,0-3.7-0.4-5.2-1.1L15,30.4l-1.2,1.7c-0.5,0.7-1.5,0.7-1.9-0.1l1.2,2.2c0.2,0.4,0.5,0.7,0.8,1c1.5,1.2,3.9,1,5-0.8L27,22.2z"/>
<linearGradient id="SVGID_00000005956200990844698550000010981274620519061380_" gradientUnits="userSpaceOnUse" x1="23.0437" y1="842.4084" x2="2.5568" y2="807.3743" gradientTransform="matrix(1 0 0 1 0 -806)">
	<stop  offset="6.601250e-02" style="stop-color:#ABFFEF"/>
	<stop  offset="0.4499" style="stop-color:#CAC9FF"/>
	<stop  offset="1" style="stop-color:#6D4AFF"/>
</linearGradient>
<path style="fill:url(#SVGID_00000005956200990844698550000010981274620519061380_);" d="M14,7.4L3.8,6.2c-2.8-0.3-4.7,2.6-3.4,5
	l0.1,0.2L14.2,13c-0.3-1.1-0.5-2.2-0.5-3.4C13.8,8.8,13.8,8.1,14,7.4z"/>
<path class="st3" d="M25.9,20.2c5.6,0,10.1-4.5,10.1-10.1S31.5,0,25.9,0S15.8,4.5,15.8,10.1S20.3,20.2,25.9,20.2z M32.3,7.5
	c0.4-0.4,0.4-1.2,0-1.6c-0.4-0.4-1.2-0.4-1.6,0l-6,6l-2.6-2.6c-0.4-0.4-1.2-0.4-1.6,0s-0.4,1.2,0,1.6l3.4,3.4c0.4,0.4,1.2,0.4,1.6,0
	L32.3,7.5z"/>
</svg>
