<?xml version="1.0" encoding="utf-8"?>
<!-- Generator: Adobe Illustrator 26.0.3, SVG Export Plug-In . SVG Version: 6.00 Build 0)  -->
<svg version="1.1" id="Layer_1" xmlns="http://www.w3.org/2000/svg" xmlns:xlink="http://www.w3.org/1999/xlink" x="0px" y="0px"
	 viewBox="0 0 36 36" style="enable-background:new 0 0 36 36;" xml:space="preserve">
<style type="text/css">
	.st0{fill:url(#SVGID_1_);}
	.st1{fill:url(#SVGID_00000178175364630444343600000014361404977897674646_);}
	.st2{fill:url(#SVGID_00000037660816577218910870000003869107537869964165_);}
	.st3{fill-rule:evenodd;clip-rule:evenodd;fill:#DC3251;}
</style>
<linearGradient id="SVGID_1_" gradientUnits="userSpaceOnUse" x1="-2.9642" y1="37.4026" x2="25.1655" y2="0.2254" gradientTransform="matrix(1 0 0 -1 0 35.8898)">
	<stop  offset="0" style="stop-color:#1C1B24"/>
	<stop  offset="0.9888" style="stop-color:#A7A4B5"/>
</linearGradient>
<path class="st0" d="M13.7,7.9l-10-1.1C1,6.5-0.9,9.3,0.4,11.7l12.4,22.6c1.2,2.2,4.3,2.3,5.7,0.2l7.9-12c-0.2,0-0.4,0-0.6,0
	c-6.8,0-12.4-5.5-12.4-12.4C13.5,9.4,13.6,8.6,13.7,7.9z"/>
<linearGradient id="SVGID_00000010291475441386229610000001385625833023709580_" gradientUnits="userSpaceOnUse" x1="25.4394" y1="-1.5543" x2="-1.2703" y2="40.4211" gradientTransform="matrix(1 0 0 -1 0 35.8898)">
	<stop  offset="6.601250e-02" style="stop-color:#FFFFFF"/>
	<stop  offset="0.4499" style="stop-color:#A7A4B5"/>
	<stop  offset="1" style="stop-color:#6D697D"/>
</linearGradient>
<path style="fill:url(#SVGID_00000010291475441386229610000001385625833023709580_);" d="M26.5,22.5c-0.2,0-0.4,0-0.6,0
	c-1.8,0-3.6-0.4-5.1-1.1l-6,9.1l-1.1,1.7c-0.5,0.7-1.5,0.7-1.9-0.1l1.2,2.1c0.2,0.4,0.5,0.7,0.8,1c1.5,1.2,3.8,1,4.9-0.7L26.5,22.5z
	"/>
<linearGradient id="SVGID_00000060715086294252373290000017881961989696467337_" gradientUnits="userSpaceOnUse" x1="24.8655" y1="-1.9195" x2="-1.8443" y2="40.0559" gradientTransform="matrix(1 0 0 -1 0 35.8898)">
	<stop  offset="6.601250e-02" style="stop-color:#FFFFFF"/>
	<stop  offset="0.4499" style="stop-color:#A7A4B5"/>
	<stop  offset="1" style="stop-color:#6D697D"/>
</linearGradient>
<path style="fill:url(#SVGID_00000060715086294252373290000017881961989696467337_);" d="M13.7,7.9l-10-1.1C1,6.5-0.9,9.3,0.4,11.7
	l0.1,0.2L14,13.5c-0.3-1.1-0.5-2.2-0.5-3.3C13.5,9.4,13.6,8.6,13.7,7.9z"/>
<path class="st3" d="M36,10.1c0,5.6-4.5,10.1-10.1,10.1s-10.1-4.5-10.1-10.1C15.8,4.5,20.3,0,25.9,0S36,4.5,36,10.1z M28.3,6.1
	c0.4-0.4,1.2-0.4,1.6,0c0.4,0.4,0.4,1.2,0,1.6l-2.4,2.4l2.4,2.4c0.4,0.4,0.4,1.2,0,1.6c-0.4,0.4-1.2,0.4-1.6,0l-2.4-2.4l-2.4,2.4
	c-0.4,0.4-1.2,0.4-1.6,0c-0.4-0.4-0.4-1.2,0-1.6l2.4-2.4l-2.4-2.4c-0.4-0.4-0.4-1.2,0-1.6c0.4-0.4,1.2-0.4,1.6,0l2.4,2.4L28.3,6.1z"
	/>
</svg>
