<?xml version="1.0" encoding="utf-8"?>
<!-- Generator: Adobe Illustrator 26.0.3, SVG Export Plug-In . SVG Version: 6.00 Build 0)  -->
<svg version="1.1" id="Layer_1" xmlns="http://www.w3.org/2000/svg" xmlns:xlink="http://www.w3.org/1999/xlink" x="0px" y="0px"
	 viewBox="0 0 36 36" style="enable-background:new 0 0 36 36;" xml:space="preserve">
<style type="text/css">
	.st0{fill:url(#SVGID_1_);}
	.st1{fill:url(#SVGID_00000130642283867606793830000009464299402539310244_);}
	.st2{fill:url(#SVGID_00000039845350975758618320000002482422735670085300_);}
	.st3{fill-rule:evenodd;clip-rule:evenodd;fill:#FF9900;}
</style>
<linearGradient id="SVGID_1_" gradientUnits="userSpaceOnUse" x1="-3.0224" y1="38.1431" x2="25.6622" y2="0.2321" gradientTransform="matrix(1 0 0 -1 0 35.8898)">
	<stop  offset="0" style="stop-color:#1C1B24"/>
	<stop  offset="0.9888" style="stop-color:#A7A4B5"/>
</linearGradient>
<path class="st0" d="M14,7.4L3.8,6.2c-2.8-0.3-4.7,2.6-3.4,5l12.7,23c1.2,2.3,4.4,2.4,5.8,0.2l8-12.2c-0.2,0-0.4,0-0.6,0
	c-7,0-12.6-5.6-12.6-12.6C13.8,8.8,13.8,8.1,14,7.4z"/>
<linearGradient id="SVGID_00000090294107112538435780000017518474678839334546_" gradientUnits="userSpaceOnUse" x1="25.941" y1="-1.5827" x2="-1.2959" y2="41.2205" gradientTransform="matrix(1 0 0 -1 0 35.8898)">
	<stop  offset="6.601250e-02" style="stop-color:#FFFFFF"/>
	<stop  offset="0.4499" style="stop-color:#A7A4B5"/>
	<stop  offset="1" style="stop-color:#6D697D"/>
</linearGradient>
<path style="fill:url(#SVGID_00000090294107112538435780000017518474678839334546_);" d="M27,22.2c-0.2,0-0.4,0-0.6,0
	c-1.9,0-3.7-0.4-5.2-1.1L15,30.4l-1.2,1.7c-0.5,0.7-1.5,0.7-1.9-0.1l1.2,2.2c0.2,0.4,0.5,0.7,0.8,1c1.5,1.2,3.9,1,5-0.8L27,22.2z"/>
<linearGradient id="SVGID_00000007424927149528972560000001080235250230917800_" gradientUnits="userSpaceOnUse" x1="25.3561" y1="-1.9549" x2="-1.8809" y2="40.8483" gradientTransform="matrix(1 0 0 -1 0 35.8898)">
	<stop  offset="6.601250e-02" style="stop-color:#FFFFFF"/>
	<stop  offset="0.4499" style="stop-color:#A7A4B5"/>
	<stop  offset="1" style="stop-color:#6D697D"/>
</linearGradient>
<path style="fill:url(#SVGID_00000007424927149528972560000001080235250230917800_);" d="M14,7.4L3.8,6.2c-2.8-0.3-4.7,2.6-3.4,5
	l0.1,0.2L14.2,13c-0.3-1.1-0.5-2.2-0.5-3.4C13.8,8.8,13.8,8.1,14,7.4z"/>
<path class="st3" d="M36,10.1c0,5.6-4.5,10.1-10.1,10.1s-10.1-4.5-10.1-10.1C15.8,4.5,20.3,0,25.9,0S36,4.5,36,10.1z M24.8,5.6
	c0-0.6,0.5-1.1,1.1-1.1S27,5,27,5.6v4.5c0,0.6-0.5,1.1-1.1,1.1s-1.1-0.5-1.1-1.1V5.6z M25.9,13.5c-0.6,0-1.1,0.5-1.1,1.1
	s0.5,1.1,1.1,1.1s1.1-0.5,1.1-1.1S26.5,13.5,25.9,13.5z"/>
</svg>
