<?xml version="1.0" encoding="utf-8"?>
<!-- Generator: Adobe Illustrator 26.0.3, SVG Export Plug-In . SVG Version: 6.00 Build 0)  -->
<svg version="1.1" id="Layer_1" xmlns="http://www.w3.org/2000/svg" xmlns:xlink="http://www.w3.org/1999/xlink" x="0px" y="0px"
	 viewBox="0 0 16 16" style="enable-background:new 0 0 16 16;" xml:space="preserve">
<style type="text/css">
	.st0{fill-rule:evenodd;clip-rule:evenodd;fill:#A7A4B5;}
</style>
<path class="st0" d="M11.6,1.6c0.2-0.2,0.5-0.2,0.7,0L14.7,4c0.3,0.3,0.3,0.7,0,1l-2.4,2.4c-0.2,0.2-0.5,0.2-0.7,0
	c-0.2-0.2-0.2-0.5,0-0.7L13.3,5H3.5C3.2,5,3,5.2,3,5.5V7H2V5.5C2,4.7,2.7,4,3.5,4h9.8l-1.6-1.6C11.5,2.2,11.5,1.8,11.6,1.6z
	 M13,10.5V8h1v2.5c0,0.8-0.7,1.5-1.5,1.5H2.7l1.6,1.6c0.2,0.2,0.2,0.5,0,0.7c-0.2,0.2-0.5,0.2-0.7,0L1.3,12c-0.3-0.3-0.3-0.7,0-1
	l2.4-2.4c0.2-0.2,0.5-0.2,0.7,0c0.2,0.2,0.2,0.5,0,0.7L2.7,11h9.8C12.8,11,13,10.8,13,10.5z"/>
</svg>
