<?xml version="1.0" encoding="utf-8"?>
<!-- Generator: Adobe Illustrator 28.0.0, SVG Export Plug-In . SVG Version: 6.00 Build 0)  -->
<svg version="1.1" id="Layer_1" xmlns="http://www.w3.org/2000/svg" xmlns:xlink="http://www.w3.org/1999/xlink" x="0px" y="0px"
	 viewBox="0 0 16 16" style="enable-background:new 0 0 16 16;" xml:space="preserve">
<style type="text/css">
	.st0{fill-rule:evenodd;clip-rule:evenodd;fill:#A7A4B5;}
</style>
<g>
	<path class="st0" d="M9.8,7.8c0-0.3-0.2-0.5-0.4-0.7C9,6.9,8.5,7,8.3,7.4s-0.1,0.8,0.3,1L8.3,9.7c0,0,0,0,0,0.1
		c0,0.1,0.1,0.2,0.2,0.2h0.9c0,0,0,0,0.1,0c0.1,0,0.2-0.2,0.2-0.3L9.4,8.4C9.6,8.3,9.8,8,9.8,7.8z"/>
	<path class="st0" d="M13.8,5.1c-0.2-0.4-0.5-0.7-0.9-0.9C12.7,4.1,12.4,4,12,4v0c0-1.7-1.3-3-3-3S6,2.3,6,4v0
		C5.6,4,5.3,4.1,5.1,4.2C4.7,4.4,4.4,4.7,4.2,5.1C4.1,5.3,4,5.6,4,6C3.6,6,3.3,6.1,3.1,6.2C2.7,6.4,2.4,6.7,2.2,7.1
		C2,7.5,2,8.1,2,9.2v1.3c0,1.6,0,2.4,0.3,3c0.3,0.5,0.7,1,1.2,1.2C4.1,15,4.9,15,6.5,15h2.3c1.1,0,1.7,0,2.1-0.2
		c0.4-0.2,0.7-0.5,0.9-0.9c0.1-0.2,0.2-0.5,0.2-0.9c0.4,0,0.7-0.1,0.9-0.2c0.4-0.2,0.7-0.5,0.9-0.9c0.2-0.4,0.2-1,0.2-2.1V7.2
		C14,6.1,14,5.5,13.8,5.1z M9,2c1.1,0,2,0.9,2,2H7C7,2.9,7.9,2,9,2z M11,13c0,0.3-0.1,0.4-0.1,0.4c-0.1,0.2-0.2,0.3-0.4,0.4
		c0,0-0.1,0.1-0.4,0.1c-0.3,0-0.7,0-1.2,0H6.5c-0.8,0-1.3,0-1.8,0c-0.4,0-0.6-0.1-0.7-0.2c-0.3-0.2-0.6-0.4-0.8-0.8
		c-0.1-0.1-0.1-0.3-0.2-0.7c0-0.4,0-1,0-1.8V9.2C3,8.6,3,8.3,3,8c0-0.3,0.1-0.4,0.1-0.4c0.1-0.2,0.2-0.3,0.4-0.4C3.6,7.1,3.7,7,4,7
		l0,0v2.8c0,1.1,0,1.7,0.2,2.1c0.2,0.4,0.5,0.7,0.9,0.9C5.5,13,6.1,13,7.2,13L11,13L11,13z M13,9.8c0,0.6,0,0.9,0,1.2
		c0,0.3-0.1,0.4-0.1,0.4c-0.1,0.2-0.2,0.3-0.4,0.4c0,0-0.1,0.1-0.4,0.1c-0.3,0-0.7,0-1.2,0H7.2c-0.6,0-0.9,0-1.2,0
		c-0.3,0-0.4-0.1-0.4-0.1c-0.2-0.1-0.3-0.2-0.4-0.4c0,0-0.1-0.1-0.1-0.4c0-0.3,0-0.7,0-1.2V7.2C5,6.6,5,6.3,5,6
		c0-0.3,0.1-0.4,0.1-0.4c0.1-0.2,0.2-0.3,0.4-0.4C5.6,5.1,5.7,5,6,5c0.3,0,0.7,0,1.2,0h3.6c0.6,0,0.9,0,1.2,0c0.3,0,0.4,0.1,0.4,0.1
		c0.2,0.1,0.3,0.2,0.4,0.4c0,0,0.1,0.1,0.1,0.4c0,0.3,0,0.7,0,1.2V9.8z"/>
</g>
</svg>
