<?xml version="1.0" encoding="utf-8"?>
<!-- Generator: Adobe Illustrator 26.0.3, SVG Export Plug-In . SVG Version: 6.00 Build 0)  -->
<svg version="1.1" id="Layer_1" xmlns="http://www.w3.org/2000/svg" xmlns:xlink="http://www.w3.org/1999/xlink" x="0px" y="0px"
	 viewBox="0 0 16 16" style="enable-background:new 0 0 16 16;" xml:space="preserve">
<style type="text/css">
	.st0{fill-rule:evenodd;clip-rule:evenodd;fill:#A7A4B5;}
</style>
<path class="st0" d="M7.1,2.1c0.1,0,0.2,0,0.4,0l0,5.5l-3,0C4.6,5.5,5.5,3.6,7.1,2.1z M3.5,7.5c0.1-1.7,0.7-3.4,1.7-4.8
	C3.5,3.6,2.2,5.4,2,7.5L3.5,7.5z M2,8.5l1.5,0c0.1,1.7,0.7,3.4,1.7,4.8C3.5,12.4,2.2,10.6,2,8.5z M4.5,8.5l3,0l0,5.5
	c-0.1,0-0.2,0-0.4,0C5.5,12.4,4.6,10.5,4.5,8.5z M8.5,8.5l0,5.5c0.1,0,0.3,0,0.4,0c1.6-1.5,2.5-3.5,2.6-5.4L8.5,8.5z M12.5,8.5
	c-0.1,1.7-0.7,3.4-1.7,4.8c1.8-0.9,3-2.7,3.2-4.8L12.5,8.5z M14,7.5l-1.5,0c-0.1-1.7-0.7-3.4-1.7-4.8C12.6,3.6,13.8,5.4,14,7.5z
	 M11.5,7.5l-3,0l0-5.5c0.1,0,0.3,0,0.4,0C10.5,3.6,11.4,5.5,11.5,7.5z M6.7,1.1L6.7,1.1L6.7,1.1C3.4,1.7,1,4.6,1,8
	c0,3.4,2.4,6.3,5.7,6.9l0,0l0,0C7.1,15,7.5,15,8,15c0.5,0,0.9,0,1.3-0.1l0,0l0,0C12.6,14.2,15,11.4,15,8c0-3.4-2.4-6.2-5.6-6.9l0,0
	l0,0C8.9,1,8.5,1,8,1C7.5,1,7.1,1,6.7,1.1z"/>
</svg>
