<?xml version="1.0" encoding="utf-8"?>
<!-- Generator: Adobe Illustrator 26.0.3, SVG Export Plug-In . SVG Version: 6.00 Build 0)  -->
<svg version="1.1" id="Layer_1" xmlns="http://www.w3.org/2000/svg" xmlns:xlink="http://www.w3.org/1999/xlink" x="0px" y="0px"
	 viewBox="0 0 16 16" style="enable-background:new 0 0 16 16;" xml:space="preserve">
<style type="text/css">
	.st0{fill-rule:evenodd;clip-rule:evenodd;fill:#A7A4B5;}
</style>
<path class="st0" d="M5.1,3.1C5.4,3,5.9,3,6.2,3.2l5.9,4c0.6,0.4,0.6,1.2,0,1.6l-5.9,4C5.9,13,5.4,13,5.1,12.9
	c-0.3-0.1-0.6-0.5-0.6-0.9V4C4.5,3.6,4.8,3.2,5.1,3.1z M5.5,4v8c0,0,0,0,0,0c0,0,0.1,0,0.1,0l5.8-4L5.6,4C5.6,4,5.6,4,5.5,4
	C5.5,4,5.5,4,5.5,4z"/>
</svg>
