<?xml version="1.0" encoding="utf-8"?>
<!-- Generator: Adobe Illustrator 26.0.3, SVG Export Plug-In . SVG Version: 6.00 Build 0)  -->
<svg version="1.1" id="Layer_1" xmlns="http://www.w3.org/2000/svg" xmlns:xlink="http://www.w3.org/1999/xlink" x="0px" y="0px"
	 viewBox="0 0 16 16" style="enable-background:new 0 0 16 16;" xml:space="preserve">
<style type="text/css">
	.st0{fill-rule:evenodd;clip-rule:evenodd;fill:#A7A4B5;}
</style>
<path class="st0" d="M8,1c0.2,0,0.4,0.1,0.5,0.3c0.4,1.1,1.3,1.9,2.1,2.5C10.8,4,11,4.1,11.2,4.3c0,0,0,0,0.1,0
	c0.2,0.1,0.4,0.3,0.6,0.4c0.4,0.3,0.8,0.6,1.1,1C13.6,6.6,14,7.8,14,9c0,1.5-0.8,3-1.9,4.1S9.5,15,8,15s-3-0.8-4.1-1.9
	C2.8,12,2,10.5,2,9c0-1.2,0.4-2.4,1.1-3.3c0.3-0.4,0.7-0.7,1.1-1c0.2-0.1,0.4-0.3,0.6-0.4c0,0,0,0,0.1,0C5,4.1,5.2,4,5.4,3.8
	c0.9-0.6,1.7-1.4,2.1-2.5C7.6,1.1,7.8,1,8,1z M4.7,5.5C4.4,5.8,4.1,6.1,3.9,6.3C3.3,7.1,3,8,3,9c0,1.2,0.6,2.5,1.6,3.4
	c0.4,0.4,0.9,0.8,1.4,1c-0.2-0.2-0.3-0.4-0.5-0.6c-0.6-1-1-2.3-1-3.8c0-1.2,0.5-2,0.9-2.9C5.4,6,5.5,5.9,5.6,5.8
	c0.3-0.6,0.5-0.9,0.7-1.3c0,0,0-0.1,0.1-0.1C6.3,4.5,6.1,4.5,6,4.6C5.8,4.8,5.6,5,5.3,5.1c0,0,0,0-0.1,0C5.1,5.3,4.9,5.4,4.7,5.5z
	 M7.5,4.4C7.4,4.7,7.2,4.9,7.1,5.1C6.9,5.4,6.7,5.8,6.4,6.2C6.4,6.3,6.3,6.5,6.3,6.6C5.8,7.4,5.5,8.1,5.5,9c0,1.3,0.4,2.5,0.9,3.3
	c0.4,0.6,0.8,0.9,1.1,1.1V4.4z M8.5,14c1.1-0.1,2.1-0.7,2.9-1.5c1-1,1.6-2.2,1.6-3.4c0-1-0.3-1.9-0.9-2.7c-0.2-0.2-0.5-0.5-0.8-0.8
	c-0.2-0.1-0.3-0.2-0.5-0.4c0,0,0,0-0.1,0C10.4,5,10.2,4.8,10,4.6C9.5,4.3,9,3.8,8.5,3.3V14z"/>
</svg>
